<svg width="25" height="25" viewBox="0 0 25 25" fill="none" xmlns="http://www.w3.org/2000/svg">
<path d="M8.33333 8.33337L8.33333 7.29171C8.33333 4.99052 10.1988 3.12504 12.5 3.12504V3.12504C14.8012 3.12504 16.6667 4.99052 16.6667 7.29171L16.6667 8.33337" stroke="white" stroke-width="2" stroke-linecap="round"/>
<path d="M15.625 14.5833V12.5" stroke="white" stroke-width="2" stroke-linecap="round"/>
<path d="M9.375 14.5833V12.5" stroke="white" stroke-width="2" stroke-linecap="round"/>
<path d="M4.16667 12.3334C4.16667 10.4478 4.16667 9.50495 4.75246 8.91916C5.33824 8.33337 6.28105 8.33337 8.16667 8.33337H16.8333C18.719 8.33337 19.6618 8.33337 20.2476 8.91916C20.8333 9.50495 20.8333 10.4478 20.8333 12.3334V13.875C20.8333 17.6463 20.8333 19.5319 19.6618 20.7035C18.4902 21.875 16.6046 21.875 12.8333 21.875H12.1667C8.39544 21.875 6.50982 21.875 5.33824 20.7035C4.16667 19.5319 4.16667 17.6463 4.16667 13.875V12.3334Z" stroke="white" stroke-width="2"/>
</svg>
