<svg width="23" height="23" viewBox="0 0 23 23" fill="none" xmlns="http://www.w3.org/2000/svg">
<path d="M4.26523 13.3287L10.9281 19.5878C11.1439 19.7905 11.2518 19.8918 11.377 19.9236C11.4577 19.9441 11.5423 19.9441 11.623 19.9236C11.7482 19.8918 11.8561 19.7905 12.0718 19.5878L18.7348 13.3287C20.6094 11.5676 20.8371 8.66964 19.2604 6.63746L18.9639 6.25535C17.0778 3.82429 13.2917 4.23199 11.9664 7.00889C11.7792 7.40115 11.2208 7.40115 11.0336 7.00889C9.70827 4.23199 5.92223 3.82428 4.03606 6.25535L3.73959 6.63746C2.1629 8.66964 2.39056 11.5676 4.26523 13.3287Z" fill="white" stroke="white" stroke-width="2"/>
</svg>
