<svg width="25" height="25" viewBox="0 0 25 25" fill="none" xmlns="http://www.w3.org/2000/svg">
<path d="M8.33334 8.33325L8.33334 7.29159C8.33334 4.9904 10.1988 3.12492 12.5 3.12492V3.12492C14.8012 3.12492 16.6667 4.9904 16.6667 7.29158L16.6667 8.33325" stroke="#9FF8EF" stroke-width="2" stroke-linecap="round"/>
<path d="M15.625 14.5833V12.5" stroke="#9FF8EF" stroke-width="2" stroke-linecap="round"/>
<path d="M9.375 14.5833V12.5" stroke="#9FF8EF" stroke-width="2" stroke-linecap="round"/>
<path d="M4.16667 12.3333C4.16667 10.4476 4.16667 9.50482 4.75245 8.91904C5.33824 8.33325 6.28105 8.33325 8.16667 8.33325H16.8333C18.719 8.33325 19.6618 8.33325 20.2475 8.91904C20.8333 9.50482 20.8333 10.4476 20.8333 12.3333V13.8749C20.8333 17.6462 20.8333 19.5318 19.6618 20.7033C18.4902 21.8749 16.6046 21.8749 12.8333 21.8749H12.1667C8.39543 21.8749 6.50981 21.8749 5.33824 20.7033C4.16667 19.5318 4.16667 17.6462 4.16667 13.8749V12.3333Z" stroke="#9FF8EF" stroke-width="2"/>
</svg>
