<svg width="21" height="20" viewBox="0 0 21 20" fill="none" xmlns="http://www.w3.org/2000/svg">
<path d="M6.39799 19.5541C6.13259 19.5541 5.8577 19.4878 5.61126 19.3551C5.07098 19.0707 4.73925 18.502 4.73925 17.8954V16.5495C1.87674 16.2557 0 14.1514 0 11.1372V5.45014C0 2.18953 2.18953 0 5.45014 0H14.9286C18.1893 0 20.3788 2.18953 20.3788 5.45014V11.1372C20.3788 14.3978 18.1893 16.5873 14.9286 16.5873H11.3552L7.31738 19.2793C7.0425 19.4594 6.72026 19.5541 6.39799 19.5541ZM5.45014 1.41229C3.00469 1.41229 1.42178 2.9952 1.42178 5.44065V11.1278C1.42178 13.5733 3.00469 15.1562 5.45014 15.1562C5.83876 15.1562 6.16103 15.4785 6.16103 15.8671V17.886C6.16103 18.0092 6.23686 18.0661 6.28425 18.0945C6.33165 18.123 6.42644 18.1514 6.5307 18.085L10.7486 15.2794C10.8624 15.2036 11.0045 15.1562 11.1467 15.1562H14.9381C17.3836 15.1562 18.9665 13.5733 18.9665 11.1278V5.44065C18.9665 2.9952 17.3836 1.41229 14.9381 1.41229H5.45014Z" fill="white"/>
<path d="M10.1892 9.8766C9.80059 9.8766 9.47832 9.55433 9.47832 9.16571V8.96666C9.47832 7.86715 10.284 7.32687 10.5873 7.11834C10.938 6.88138 11.0517 6.72025 11.0517 6.47381C11.0517 5.99989 10.6631 5.61123 10.1892 5.61123C9.71528 5.61123 9.32666 5.99989 9.32666 6.47381C9.32666 6.86243 9.00439 7.1847 8.61577 7.1847C8.22719 7.1847 7.90492 6.86243 7.90492 6.47381C7.90492 5.21317 8.92856 4.18945 10.1892 4.18945C11.4498 4.18945 12.4735 5.21317 12.4735 6.47381C12.4735 7.55436 11.6773 8.09464 11.3835 8.29368C11.0138 8.54013 10.9001 8.70126 10.9001 8.96666V9.16571C10.9001 9.5638 10.5778 9.8766 10.1892 9.8766Z" fill="white"/>
<path d="M10.1894 12.2369C9.79129 12.2369 9.4785 11.9146 9.4785 11.526C9.4785 11.1374 9.80077 10.8151 10.1894 10.8151C10.578 10.8151 10.9003 11.1374 10.9003 11.526C10.9003 11.9146 10.5875 12.2369 10.1894 12.2369Z" fill="white"/>
</svg>
