<svg width="26" height="25" viewBox="0 0 26 25" fill="none" xmlns="http://www.w3.org/2000/svg">
<path d="M12.7205 20.4932C12.2355 20.4932 11.8334 20.091 11.8334 19.606V16.0574C11.8334 15.5725 12.2355 15.1703 12.7205 15.1703C13.2055 15.1703 13.6077 15.5725 13.6077 16.0574V19.606C13.6077 20.091 13.2055 20.4932 12.7205 20.4932Z" fill="#9FF8EF"/>
<path d="M19.3456 25H6.09751C3.94468 25 1.98112 23.344 1.62626 21.2266L0.0530438 11.7992C-0.207187 10.3324 0.514363 8.45162 1.6854 7.51715L9.88269 0.95223C11.4677 -0.325269 13.9635 -0.31344 15.5604 0.964059L23.7577 7.51715C24.9169 8.45162 25.6266 10.3324 25.3901 11.7992L23.8168 21.2148C23.462 23.3085 21.4511 25 19.3456 25ZM12.7097 1.78024C12.0828 1.78024 11.4559 1.9695 10.9945 2.33619L2.7973 8.91294C2.13489 9.44523 1.66175 10.6755 1.80369 11.5153L3.37691 20.9309C3.58982 22.1729 4.83184 23.2257 6.09751 23.2257H19.3456C20.6113 23.2257 21.8533 22.1729 22.0662 20.9191L23.6394 11.5035C23.7695 10.6755 23.2964 9.42158 22.6458 8.90111L14.4485 2.34802C13.9754 1.9695 13.3366 1.78024 12.7097 1.78024Z" fill="#9FF8EF"/>
</svg>
